<?xml version="1.0" encoding="UTF-8"?>
<svg width="22.494mm" height="10.621mm" version="1.1" viewBox="0 0 22.494 10.621" xmlns="http://www.w3.org/2000/svg">
 <g transform="translate(-59.907 -88.148)">
  <path d="m71.154 98.718 0.08467-0.14817 0.10583-0.127 0.08467-0.127 0.10583-0.14817 0.08467-0.127 0.10583-0.127 0.16934-0.254 0.10583-0.10583 0.25401-0.381 0.10583-0.10583 0.08467-0.127 0.08467-0.10583 0.08467-0.10583 0.08467-0.127 0.10579-0.10583 0.08467-0.10583 0.59269-0.74083 0.08467-0.08467 0.16934-0.21167 0.08467-0.08467 0.08467-0.10583 0.16934-0.16934 0.08467-0.10583 0.16934-0.16934 0.0635-0.08467 0.42335-0.42335 0.0635-0.08467 0.25401-0.25401 0.08467-0.0635 0.0635-0.08467 0.08467-0.08467 0.08467-0.0635 0.0635-0.08467 0.08467-0.0635 0.08467-0.08467 0.08467-0.0635 0.0635-0.08467 0.08467-0.0635 0.14817-0.14817 0.16933-0.14817 0.14817-0.127 0.16933-0.14817 0.14817-0.127 0.16933-0.14817 0.14817-0.127 0.16925-0.14816 0.33867-0.254 0.16933-0.14817 0.14817-0.127 0.33867-0.254 0.1905-0.14817 0.508-0.381 0.1905-0.14817 0.16933-0.127 0.1905-0.127 0.16933-0.127 0.1905-0.14817 0.381-0.254 0.08467-0.08467 0.08467-0.0635 0.10583-0.0635 0.08467-0.0635 0.10583-0.0635 0.10582-0.08467 0.08467-0.0635 0.10583-0.0635 0.08467-0.0635 0.10583-0.08467 0.10583-0.0635 0.08467-0.0635 0.10583-0.08467 0.10583-0.0635 0.10583-0.0635 0.10583-0.08467 0.08467-0.0635 0.10583-0.08467 0.10583-0.0635 0.10583-0.08467 0.10583-0.0635 0.10582-0.08467h-7.5142l-3.683 3.7042-3.683-3.7042h-7.5142l0.10583 0.08467 0.10583 0.0635 0.10583 0.08467 0.10583 0.0635 0.10583 0.08467 0.08467 0.0635 0.10583 0.08467 0.21167 0.127 0.10583 0.08467 0.08467 0.0635 0.10583 0.0635 0.10583 0.08467 0.08467 0.0635 0.10583 0.0635 0.08467 0.0635 0.10583 0.08467 0.10583 0.0635 0.08467 0.0635 0.10583 0.0635 0.08467 0.0635 0.08467 0.08467 0.381 0.254 0.1905 0.14817 0.16933 0.127 0.1905 0.127 0.16933 0.127 0.1905 0.14817 0.508 0.381 0.1905 0.14817 0.33867 0.254 0.14817 0.127 0.16933 0.14817 0.33867 0.254 0.16933 0.14817 0.14817 0.127 0.16933 0.14817 0.14817 0.127 0.16933 0.14817 0.14817 0.127 0.16933 0.14817 0.14817 0.14817 0.08467 0.0635 0.0635 0.08467 0.08467 0.0635 0.08467 0.08467 0.08467 0.0635 0.0635 0.08467 0.08467 0.0635 0.08467 0.08467 0.0635 0.08467 0.08467 0.0635 0.25401 0.25401 0.0635 0.08467 0.42335 0.42335 0.0635 0.08467 0.16934 0.16934 0.08467 0.10583 0.16934 0.16934 0.08467 0.10583 0.08467 0.08467 0.08467 0.10583 0.08466 0.10583 0.08467 0.08467 0.08467 0.10583 0.25401 0.3175 0.25401 0.3175 0.08467 0.10583 0.10583 0.10583 0.08467 0.127 0.08467 0.10583 0.08467 0.10583 0.08467 0.127 0.10583 0.10583 0.25401 0.381 0.10583 0.10583 0.16934 0.254 0.10583 0.127 0.08467 0.127 0.10583 0.14817 0.08467 0.127 0.10583 0.127 0.08467 0.14817" fill="none" stroke="#000" stroke-linecap="round" stroke-linejoin="round" stroke-miterlimit="10" stroke-width=".1"/>
 </g>
</svg>
